<svg width="27" height="27" viewBox="0 0 27 27" fill="none" xmlns="http://www.w3.org/2000/svg">
<path d="M5.54505 21.455C7.11839 23.0283 9.12295 24.0998 11.3052 24.5338C13.4875 24.9679 15.7495 24.7451 17.8052 23.8936C19.8609 23.0422 21.6179 21.6002 22.854 19.7502C24.0902 17.9001 24.75 15.725 24.75 13.5C24.75 11.275 24.0902 9.09989 22.854 7.24984C21.6179 5.39978 19.8609 3.95784 17.8052 3.10636C15.7495 2.25487 13.4875 2.03208 11.3052 2.46617C9.12295 2.90025 7.11839 3.97171 5.54505 5.54505" stroke="#CCD2E3" stroke-width="4"/>
<path d="M16.875 13.5L18.4367 12.2506L19.4362 13.5L18.4367 14.7494L16.875 13.5ZM3.375 15.5C2.27043 15.5 1.375 14.6046 1.375 13.5C1.375 12.3954 2.27043 11.5 3.375 11.5V13.5V15.5ZM12.375 7.875L13.9367 6.62561L18.4367 12.2506L16.875 13.5L15.3133 14.7494L10.8133 9.12439L12.375 7.875ZM16.875 13.5L18.4367 14.7494L13.9367 20.3744L12.375 19.125L10.8133 17.8756L15.3133 12.2506L16.875 13.5ZM16.875 13.5V15.5H3.375V13.5V11.5H16.875V13.5Z" fill="#CCD2E3"/>
</svg>
